Coordinates
version=1
nRows=12
nColumns=33
inDegrees=yes

Units are S.I. units (second, meters, Newtons, ...)
Angles are in degrees.

endheader
time	ground_thorax_rot_x	ground_thorax_rot_y	ground_thorax_rot_z	ground_thorax_tx	ground_thorax_ty	ground_thorax_tz	clav_prot_r	clav_elev_r	scapula_abduction_r	scapula_elevation_r	scapula_upward_rot_r	scapula_winging_r	shoulder_elv_r	plane_of_elev_r	axial_rot_r	elbow_flexion_r	pro_sup_r	wrist_flex_r	wrist_dev_r	clav_prot_l	clav_elev_l	scapula_abduction_l	scapula_elevation_l	scapula_upward_rot_l	scapula_winging_l	shoulder_elv_l	plane_of_elev_l	axial_rot_l	elbow_flexion_l	pro_sup_l	wrist_flex_l	wrist_dev_l
      5.37000000	     23.39172257	     34.78126080	     51.86470519	    -94.67857124	    780.07176295	      4.50863957	     13.19658304	     37.27235642	     34.15393080	     45.00000000	    -42.66377677	   2435.19094023	  -1018.38808225	     31.14086309	     59.04901250	   1089.72589767	     18.64814091	     16.75420694	     11.64348875	      8.00552116	    -45.00000000	    -35.89101378	     45.00000000	    -45.00000000	  -2063.53101322	    260.01474741	    143.25416723	    133.32130730	    730.00502708	     27.25114863	      8.07383787	    -19.28985259
      5.38000000	     22.80484503	     35.03529621	     52.82715572	    -90.73203093	    779.21727675	      4.49493954	     13.20016702	     37.15748656	     33.97510619	     45.00000000	    -43.01332516	   2435.41804049	  -1018.54851233	     31.01361932	     59.60464775	   1089.61104754	     19.42939612	     16.73390184	     11.56762818	      8.02246270	    -45.00000000	    -35.85942912	     45.00000000	    -45.00000000	  -2063.50001899	    259.75792429	    143.58608642	    132.24318439	    729.86881247	     27.94408127	      8.07351131	    -19.28346227
      5.39000000	     22.29870162	     35.28006525	     53.68410011	    -86.90782945	    778.50892174	      4.47111174	     13.14597696	     37.08444405	     33.82880952	     45.00000000	    -43.28865854	   2435.59408723	  -1018.70627841	     30.91023378	     60.15359643	   1089.48250829	     20.22416192	     16.71429392	     11.47725386	      8.02715396	    -45.00000000	    -35.86118191	     45.00000000	    -45.00000000	  -2063.51667235	    259.43864949	    143.94176294	    131.15734205	    729.72821239	     28.61941089	      8.05361193	    -19.27964355
      5.40000000	     21.80393354	     35.52397742	     54.47353177	    -83.22142980	    777.95239189	      4.43889721	     13.13116907	     37.03211475	     33.63999347	     45.00000000	    -43.53329824	   2435.76869829	  -1018.84474706	     30.82440557	     60.65381310	   1089.33271370	     21.06043744	     16.68977988	     11.36723884	      8.02473759	    -45.00000000	    -35.78724363	     45.00000000	    -45.00000000	  -2063.57389540	    259.15893578	    144.24014852	    130.18102257	    729.55712715	     29.25464751	      8.02240671	    -19.26053097
      5.41000000	     21.24593733	     35.75588663	     55.26369315	    -79.70025143	    777.55000379	      4.40002628	     12.99416417	     36.95937093	     33.44110808	     45.00000000	    -43.69781331	   2435.99671780	  -1019.00041415	     30.65308040	     61.11357651	   1089.25811323	     21.91509336	     16.68406307	     11.25234981	      8.09085406	    -45.00000000	    -35.79900019	     45.00000000	    -45.00000000	  -2063.61886928	    258.97051974	    144.48691143	    129.30523793	    729.38640803	     29.83299138	      7.99961978	    -19.23754310
      5.42000000	     20.74146245	     35.89582204	     56.05786201	    -76.35998185	    777.29505460	      4.35776274	     12.95527757	     36.88575538	     33.27065842	     45.00000000	    -43.86847204	   2436.27592353	  -1019.12301840	     30.51344321	     61.44911323	   1089.17161743	     22.76456844	     16.67678447	     11.11892177	      8.12047927	    -45.00000000	    -35.79182302	     45.00000000	    -45.00000000	  -2063.63075854	    258.77824820	    144.81322672	    128.56528659	    729.21886699	     30.33724435	      7.97967123	    -19.20733027
      5.43000000	     20.03690117	     36.19566562	     56.94236534	    -73.22640745	    777.17595600	      4.31422589	     12.89197127	     36.74213185	     32.71152934	     45.00000000	    -44.03019235	   2436.66837334	  -1019.05092668	     30.46637332	     61.57802639	   1089.03185841	     23.57460756	     16.64947994	     10.94857618	      8.15955848	    -45.00000000	    -35.91585952	     45.00000000	    -45.00000000	  -2063.80190669	    258.61313557	    145.20386588	    127.95517261	    729.00017198	     30.77318465	      7.97775040	    -19.16464684
      5.44000000	     19.85456118	     36.30235574	     57.34063628	    -70.29873363	    777.17441644	      4.27209428	     12.82500388	     36.76741812	     32.85459772	     45.00000000	    -44.20253823	   2436.66490261	  -1019.29630433	     30.40885480	     61.67251869	   1088.98370721	     24.47200892	     16.66039295	     10.85154260	      8.19115282	    -45.00000000	    -35.77220501	     45.00000000	    -45.00000000	  -2063.76790826	    258.37160950	    145.25101033	    127.41788706	    728.91218735	     31.15857651	      7.94662249	    -19.13863775
      5.45000000	     19.75379245	     36.37023276	     57.65502142	    -67.60608731	    777.26986902	      4.23336261	     12.81740906	     36.79245566	     32.95666437	     45.00000000	    -44.27877019	   2436.66068696	  -1019.40621669	     30.53659636	     61.70656822	   1088.91595289	     25.49422514	     16.65773629	     10.71649017	      8.13709073	    -45.00000000	    -35.57881735	     45.00000000	    -45.00000000	  -2063.76792633	    258.14069389	    145.32368529	    127.06951468	    728.72174844	     31.53684978	      7.94919848	    -19.09720406
      5.46000000	     19.45115662	     36.41561481	     58.07932137	    -65.14978926	    777.44068915	      4.20080966	     13.03306291	     36.70974455	     32.90579730	     45.00000000	    -44.54211214	   2436.85633367	  -1019.51874081	     30.55886192	     61.32266812	   1088.97342562	     26.35941369	     16.68568852	     10.57937265	      7.98082015	    -45.00000000	    -35.53157420	     45.00000000	    -45.00000000	  -2063.82857057	    258.05742673	    145.44807982	    126.99886311	    728.56220150	     31.82065178	      7.96999564	    -19.05296179
      5.47000000	     19.18481536	     36.55713638	     58.48996140	    -62.93168326	    777.66765767	      4.17647399	     12.92088121	     36.66291844	     32.79735942	     45.00000000	    -44.65453217	   2437.02487196	  -1019.55651455	     30.55779788	     60.98666745	   1088.88459769	     27.18912908	     16.68055042	     10.49898870	      8.00981499	    -45.00000000	    -35.52138954	     45.00000000	    -45.00000000	  -2063.85996044	    257.85046159	    145.55300189	    126.95338349	    728.40811475	     32.05586649	      7.98560729	    -19.00603034
      5.48000000	     18.70766908	     36.70881100	     59.01232079	    -60.95045404	    777.93311403	      4.16271298	     13.00240386	     36.57990389	     32.46878897	     45.00000000	    -44.78258027	   2437.19070424	  -1019.53020857	     30.58490669	     60.51328306	   1089.02172735	     27.78841413	     16.70320623	     10.35499656	      7.96279142	    -45.00000000	    -35.61153555	     45.00000000	    -45.00000000	  -2063.98991820	    257.80202876	    145.71631563	    127.15754088	    728.34118599	     32.18017406	      7.96532109	    -18.94867466
